<svg width="20" height="20" viewBox="0 0 20 20" fill="none" xmlns="http://www.w3.org/2000/svg">
<g id="Light_FacebookLogo">
<path id="Vector" fill-rule="evenodd" clip-rule="evenodd" d="M10 2.96875C6.11675 2.96875 2.96875 6.11675 2.96875 10C2.96875 13.8833 6.11675 17.0312 10 17.0312C13.8833 17.0312 17.0312 13.8833 17.0312 10C17.0312 6.11675 13.8833 2.96875 10 2.96875ZM2.03125 10C2.03125 5.59898 5.59898 2.03125 10 2.03125C14.401 2.03125 17.9688 5.59898 17.9688 10C17.9688 14.401 14.401 17.9688 10 17.9688C5.59898 17.9688 2.03125 14.401 2.03125 10Z" fill="#24272E"/>
<path id="Vector 1 (Stroke)" fill-rule="evenodd" clip-rule="evenodd" d="M11.875 7.34375C11.0983 7.34375 10.4688 7.97335 10.4688 8.75V17.5C10.4688 17.7589 10.2589 17.9688 10 17.9688C9.74112 17.9688 9.53125 17.7589 9.53125 17.5V8.75C9.53125 7.45558 10.5806 6.40625 11.875 6.40625H13.125C13.3839 6.40625 13.5938 6.61612 13.5938 6.875C13.5938 7.13388 13.3839 7.34375 13.125 7.34375H11.875Z" fill="#24272E"/>
<path id="Vector_2" fill-rule="evenodd" clip-rule="evenodd" d="M7.03125 11.25C7.03125 10.9911 7.24112 10.7812 7.5 10.7812H12.5C12.7589 10.7812 12.9688 10.9911 12.9688 11.25C12.9688 11.5089 12.7589 11.7188 12.5 11.7188H7.5C7.24112 11.7188 7.03125 11.5089 7.03125 11.25Z" fill="#24272E"/>
</g>
</svg>
