<svg width="20" height="20" viewBox="0 0 20 20" fill="none" xmlns="http://www.w3.org/2000/svg">
<g id="Light_InstagramLogo">
<path id="Vector" fill-rule="evenodd" clip-rule="evenodd" d="M10 7.34375C8.53299 7.34375 7.34375 8.53299 7.34375 10C7.34375 11.467 8.53299 12.6562 10 12.6562C11.467 12.6562 12.6562 11.467 12.6562 10C12.6562 8.53299 11.467 7.34375 10 7.34375ZM6.40625 10C6.40625 8.01523 8.01523 6.40625 10 6.40625C11.9848 6.40625 13.5938 8.01523 13.5938 10C13.5938 11.9848 11.9848 13.5938 10 13.5938C8.01523 13.5938 6.40625 11.9848 6.40625 10Z" fill="#24272E"/>
<path id="Vector_2" fill-rule="evenodd" clip-rule="evenodd" d="M6.5625 3.28125C4.75032 3.28125 3.28125 4.75032 3.28125 6.5625V13.4375C3.28125 15.2497 4.75032 16.7188 6.5625 16.7188H13.4375C15.2497 16.7188 16.7188 15.2497 16.7188 13.4375V6.5625C16.7188 4.75032 15.2497 3.28125 13.4375 3.28125H6.5625ZM2.34375 6.5625C2.34375 4.23255 4.23255 2.34375 6.5625 2.34375H13.4375C15.7675 2.34375 17.6562 4.23255 17.6562 6.5625V13.4375C17.6562 15.7675 15.7675 17.6562 13.4375 17.6562H6.5625C4.23255 17.6562 2.34375 15.7675 2.34375 13.4375V6.5625Z" fill="#24272E"/>
<path id="Vector_3" d="M14.0625 6.71875C14.494 6.71875 14.8438 6.36897 14.8438 5.9375C14.8438 5.50603 14.494 5.15625 14.0625 5.15625C13.631 5.15625 13.2812 5.50603 13.2812 5.9375C13.2812 6.36897 13.631 6.71875 14.0625 6.71875Z" fill="#24272E"/>
</g>
</svg>
