<svg width="18" height="18" viewBox="0 0 18 18" fill="none" xmlns="http://www.w3.org/2000/svg">
<g id="Light_Storefront">
<path id="Vector" fill-rule="evenodd" clip-rule="evenodd" d="M3.375 9.3938C3.608 9.3938 3.79688 9.58268 3.79688 9.81567V14.625C3.79688 14.6623 3.81169 14.6981 3.83806 14.7245C3.86443 14.7509 3.9002 14.7657 3.9375 14.7657H14.0625C14.0998 14.7657 14.1356 14.7509 14.1619 14.7245C14.1883 14.6981 14.2031 14.6623 14.2031 14.625V9.81567C14.2031 9.58268 14.392 9.3938 14.625 9.3938C14.858 9.3938 15.0469 9.58268 15.0469 9.81567V14.625C15.0469 14.8861 14.9432 15.1365 14.7586 15.3211C14.574 15.5057 14.3236 15.6094 14.0625 15.6094H3.9375C3.67643 15.6094 3.42605 15.5057 3.24144 15.3211C3.05684 15.1365 2.95312 14.8861 2.95312 14.625V9.81567C2.95312 9.58268 3.142 9.3938 3.375 9.3938Z" fill="#24272E"/>
<path id="Vector_2" fill-rule="evenodd" clip-rule="evenodd" d="M3.79688 2.39062H14.2066C14.419 2.39237 14.6253 2.46232 14.7949 2.59012C14.9646 2.71793 15.0887 2.89685 15.149 3.10054L15.1503 3.10473L16.1557 6.63442C16.192 6.76168 16.1664 6.89858 16.0867 7.00418C16.007 7.10979 15.8823 7.17188 15.75 7.17188H2.25C2.11768 7.17188 1.99303 7.10979 1.9133 7.00418C1.83358 6.89858 1.80802 6.76168 1.84427 6.63442L2.85094 3.10053C2.91125 2.89685 3.0354 2.71793 3.20508 2.59012C3.37475 2.46232 3.58099 2.39239 3.79341 2.39064L3.79688 2.39062ZM3.79918 3.23438C3.76796 3.23488 3.73769 3.24527 3.71273 3.26407C3.68785 3.28281 3.66955 3.30893 3.66041 3.33868L2.80884 6.32812H15.1912L14.3396 3.33868C14.3305 3.30893 14.3122 3.28281 14.2873 3.26407C14.2623 3.24527 14.232 3.23488 14.2008 3.23438H3.79918Z" fill="#24272E"/>
<path id="Vector_3" fill-rule="evenodd" clip-rule="evenodd" d="M2.25 6.32812C2.483 6.32812 2.67188 6.517 2.67188 6.75V7.875C2.67188 8.35985 2.86448 8.82484 3.20732 9.16768C3.55016 9.51052 4.01515 9.70312 4.5 9.70312C4.98485 9.70312 5.44984 9.51052 5.79268 9.16768C6.13552 8.82484 6.32812 8.35985 6.32812 7.875V6.75C6.32812 6.517 6.517 6.32812 6.75 6.32812C6.983 6.32812 7.17188 6.517 7.17188 6.75V7.875C7.17188 8.58363 6.89037 9.26323 6.3893 9.7643C5.88823 10.2654 5.20863 10.5469 4.5 10.5469C3.79137 10.5469 3.11177 10.2654 2.6107 9.7643C2.10963 9.26323 1.82812 8.58363 1.82812 7.875V6.75C1.82812 6.517 2.017 6.32812 2.25 6.32812Z" fill="#24272E"/>
<path id="Vector_4" fill-rule="evenodd" clip-rule="evenodd" d="M6.75 6.32812C6.983 6.32812 7.17188 6.517 7.17188 6.75V7.875C7.17188 8.35985 7.36448 8.82484 7.70732 9.16768C8.05016 9.51052 8.51515 9.70312 9 9.70312C9.48485 9.70312 9.94984 9.51052 10.2927 9.16768C10.6355 8.82484 10.8281 8.35985 10.8281 7.875V6.75C10.8281 6.517 11.017 6.32812 11.25 6.32812C11.483 6.32812 11.6719 6.517 11.6719 6.75V7.875C11.6719 8.58363 11.3904 9.26323 10.8893 9.7643C10.3882 10.2654 9.70863 10.5469 9 10.5469C8.29137 10.5469 7.61177 10.2654 7.1107 9.7643C6.60963 9.26323 6.32812 8.58363 6.32812 7.875V6.75C6.32812 6.517 6.517 6.32812 6.75 6.32812Z" fill="#24272E"/>
<path id="Vector_5" fill-rule="evenodd" clip-rule="evenodd" d="M11.25 6.32812C11.483 6.32812 11.6719 6.517 11.6719 6.75V7.875C11.6719 8.35985 11.8645 8.82484 12.2073 9.16768C12.5502 9.51052 13.0152 9.70312 13.5 9.70312C13.9848 9.70312 14.4498 9.51052 14.7927 9.16768C15.1355 8.82484 15.3281 8.35985 15.3281 7.875V6.75C15.3281 6.517 15.517 6.32812 15.75 6.32812C15.983 6.32812 16.1719 6.517 16.1719 6.75V7.875C16.1719 8.58363 15.8904 9.26323 15.3893 9.7643C14.8882 10.2654 14.2086 10.5469 13.5 10.5469C12.7914 10.5469 12.1118 10.2654 11.6107 9.7643C11.1096 9.26323 10.8281 8.58363 10.8281 7.875V6.75C10.8281 6.517 11.017 6.32812 11.25 6.32812Z" fill="#24272E"/>
</g>
</svg>
